<svg xmlns="http://www.w3.org/2000/svg" width="400" height="400" viewBox="0 0 400 400"><rect width="100%" height="100%" fill="#DDDDDD"/><path fill="#999999" d="M200 254.6q6.1 0 10.7-1.75t7.75-4.85q3.15-3.1 4.75-7.4 1.6-4.3 1.6-9.3 0-11.9-6.6-18t-18.2-6.1q-11.6 0-18.2 6.1t-6.6 18q0 5 1.6 9.3 1.6 4.3 4.75 7.4 3.15 3.1 7.75 4.85 4.6 1.75 10.7 1.75Zm0-109.9q-5.5 0-9.5 1.7t-6.65 4.55q-2.65 2.85-3.9 6.55-1.25 3.7-1.25 7.8 0 4.3 1.05 8.35t3.55 7.2q2.5 3.15 6.6 5.05t10.1 1.9q6 0 10.1-1.9t6.6-5.05q2.5-3.15 3.55-7.2 1.05-4.05 1.05-8.35 0-4.1-1.3-7.8t-3.9-6.55q-2.6-2.85-6.6-4.55-4-1.7-9.5-1.7Zm24.4 52.2q13.2 4.3 19.5 13.15 6.3 8.85 6.3 21.65 0 9.6-3.65 17.4-3.65 7.8-10.25 13.3-6.6 5.5-15.85 8.5t-20.45 3q-11.2 0-20.45-3t-15.85-8.5q-6.6-5.5-10.25-13.3-3.65-7.8-3.65-17.4 0-12.8 6.3-21.65 6.3-8.85 19.5-13.15-10.5-4.4-15.75-12.5t-5.25-19.5q0-8.2 3.35-15.3 3.35-7.1 9.35-12.35t14.35-8.2Q190 126.1 200 126.1q10 0 18.35 2.95 8.35 2.95 14.35 8.2 6 5.25 9.35 12.35 3.35 7.1 3.35 15.3 0 11.4-5.25 19.5t-15.75 12.5Z"/></svg>