<!DOCTYPE svg PUBLIC "-//W3C//DTD SVG 1.1//EN" "http://www.w3.org/Graphics/SVG/1.1/DTD/svg11.dtd">
<!-- Uploaded to: SVG Repo, www.svgrepo.com, Transformed by: SVG Repo Mixer Tools -->
<svg width="800px" height="800px" viewBox="0 0 16 16" xmlns="http://www.w3.org/2000/svg" fill="#000000" class="bi bi-laptop">
<g id="SVGRepo_bgCarrier" stroke-width="0"/>
<g id="SVGRepo_tracerCarrier" stroke-linecap="round" stroke-linejoin="round"/>
<g id="SVGRepo_iconCarrier"> <path d="M13.5 3a.5.5 0 0 1 .5.5V11H2V3.5a.5.5 0 0 1 .5-.5h11zm-11-1A1.5 1.5 0 0 0 1 3.5V12h14V3.5A1.5 1.5 0 0 0 13.5 2h-11zM0 12.5h16a1.5 1.5 0 0 1-1.5 1.5h-13A1.5 1.5 0 0 1 0 12.5z"/> </g>
</svg>