<?xml version="1.0" encoding="UTF-8" standalone="no"?>
<svg
   version="1.0"
   x="0px"
   y="0px"
   width="66.124359"
   height="44.153851"
   viewBox="0 0 66.124359 44.153852"
   enable-background="new 0 0 66.124 53.266"
   xml:space="preserve"
   xmlns="http://www.w3.org/2000/svg"
   xmlns:svg="http://www.w3.org/2000/svg"><defs
   id="defs1" />
<g
   id="g1">
	<path
   fill="#007aff"
   d="m 38.075,19.438 -6.87,9.887 C 21.568,41.536 0.465,35.589 0,17.813 h 9.483 c 0,4.662 3.775,8.438 8.438,8.438 4.658,0 8.437,-3.775 8.437,-8.438 0,-4.66 -3.779,-8.438 -8.437,-8.438 -4.663,0 -8.438,4.071 -8.438,8.438 H 0 C 0.624,-2.324 28.259,-6.833 33.368,11.788 32.904,13.567 38.574,-0.101 49.709,0.208 68.715,-0.179 74.067,31.821 50.321,33.686 H 43.837 V 44.154 H 34.563 V 24.767 h 14.831 c 3.516,0 5.324,-2.637 5.361,-2.678 5.191,-5.344 -1.749,-17.003 -10.573,-10.534 -2.146,1.815 -5.449,6.898 -6.107,7.883 l -0.611,0.924"
   id="path1" />
</g>
</svg>
