<svg viewBox="0 0 334 334" xmlns="http://www.w3.org/2000/svg">
   <path fill="#41cd52"
      d="M -0.04895561,-2.5021537 H 398.45105 V 272.28784 c -21.4,21.47 -42.87,42.87 -64.39,64.21 H -63.548956 V 60.887847 c 21.08,-21.21 42.34,-42.26 63.50000039,-63.3900007 z" />
   <path
      d="m 58.821044,68.827847 c 15.13,-10.01 33.839999,-12.54 51.630006,-12.38 16.94,0.21 34.72,3.18 48.76,13.29 10.2,7.17 16.83,18.24 21.25,29.689991 7.15,18.800002 9.25,39.100002 9.49,59.080002 0.03,20.12 -0.88,40.68 -7.54,59.85 -4.46,13.04 -12.95,24.62 -24.15,32.66 8.06,13.06 16.28,26.02 24.34,39.08 -10.13,4.67 -20.23,9.37 -30.37,14.02 -8.63,-14.24 -17.22,-28.51 -25.88,-42.73 -11.71,1.92 -23.69,1.77 -35.460007,0.47 -14.099999,-1.69 -28.469999,-5.99 -39.349999,-15.48 -8.36,-7.24 -13.61,-17.37 -17.2,-27.67 -5.88,-17.42 -7.46,-35.96 -7.73,-54.24 -0.14,-19.76 1.12,-39.83 7.08,-58.79 4.61,-14.259993 12.24,-28.489993 25.13,-36.849993 z"
      fill="#ffffff" />
   <path
      d="m 230.58105,68.187847 c 10.6,-0.01 21.2,-0.01 31.8,0 0.03,14.02 -0.01,28.029995 0.02,42.049993 13.55,0.02 27.1,0 40.65,0.01 -0.23,9.1 -0.48,18.2 -0.74,27.3 -13.54,0.03 -27.07,-0.01 -40.61,0.02 0.03,22.98 -0.07,45.96 0.05,68.94 0.26,6.29 0.12,12.93 2.89,18.74 2.02,4.48 7.46,5.63 11.89,5.78 8.35,-0.03 16.69,-0.52 25.04,-0.67 0.51,8.36 1,16.73 1.48,25.09 -16.61,2.79 -34.04,6.13 -50.54,0.91 -6.95,-2.06 -13.43,-6.67 -16.25,-13.54 -5.05,-11.69 -5.46,-24.7 -5.68,-37.25 -0.02,-22.67 0,-45.33 -0.01,-68 -7.39,-0.02 -14.78,0.01 -22.17,-0.02 -0.02,-9.09 -0.02,-18.19 0,-27.29 7.39,-0.03 14.77,0.01 22.16,-0.02 0.03,-14.019998 -0.01,-28.029993 0.02,-42.049993 z"
      fill="#ffffff" />
   <path fill="#41cd52"
      d="m 96.961043,85.197847 c 10.290007,-1.34 21.090007,-0.98 30.830007,2.91 7.89,3.12 14.59,9.229995 18.13,16.969993 5.43,11.73 7.51,24.68 8.56,37.47 1.14,17.02 0.98,34.2 -1.37,51.12 -1.65,10.07 -4,20.68 -10.82,28.62 -6.92,7.97 -17.59,11.39 -27.83,12.19 -10.8,0.79 -22.190007,0 -31.940006,-5.11 -5.69,-3.03 -10.52,-7.78 -13.34,-13.6 -3.42,-6.97 -5.3,-14.58 -6.62,-22.2 -3.98,-24.16 -4.94,-49.16 0.5,-73.18 2.24,-9.06 5.5,-18.36 12.12,-25.189993 5.76,-5.85 13.78,-8.87 21.779999,-10 z" />
</svg>