<?xml version="1.0" encoding="UTF-8" standalone="no"?>
<svg
   version="1.0"
   width="201.89999"
   height="208.10001"
   viewBox="0 0 201.89999 208.10001"
   preserveAspectRatio="xMidYMid"
   id="svg17"
   xmlns="http://www.w3.org/2000/svg"
   xmlns:svg="http://www.w3.org/2000/svg">
  <defs
     id="defs17" />
  <g
     fill="#da2a1e"
     id="g6"
     transform="translate(0,-0.9)">
    <path
       d="M 25,176 V 143 H 12.5 0 V 125 107 H 12.5 25 V 53.9 0.9 l 57.3,0.4 c 64.6,0.4 62.8,0.2 79.6,8.3 12.8,6.2 22.9,16.2 28.9,28.4 5.9,12 7.6,19.3 7.6,33 0.1,18.3 -4.7,30.8 -16.8,43.7 -8.4,9 -16.4,14.3 -29.3,19.4 -2.1,0.8 -0.8,2.9 23.7,37.9 l 25.9,37 H 178.1 154.2 L 132.5,176 110.7,143 H 86.9 63 v 33 33 H 44 25 Z m 117.2,-73.3 c 8.3,-4.1 12.3,-8.1 16,-16.4 1.8,-3.8 2.3,-6.7 2.3,-14.3 0,-8.4 -0.3,-10.2 -2.8,-15.2 -3.5,-7.1 -10.9,-14 -18.5,-17 -5.5,-2.2 -7,-2.3 -40.9,-2.6 L 63,36.9 V 72 107.1 l 35.8,-0.3 35.8,-0.3 z"
       id="path3" />
  </g>
</svg>
